<svg id="visual" viewBox="0 0 900 300" width="900" height="300" xmlns="http://www.w3.org/2000/svg" xmlns:xlink="http://www.w3.org/1999/xlink" version="1.1"><rect x="0" y="0" width="900" height="300" fill="#4b24c7"></rect><path d="M0 199L21.5 197.5C43 196 86 193 128.8 192.2C171.7 191.3 214.3 192.7 257.2 195.3C300 198 343 202 385.8 202.7C428.7 203.3 471.3 200.7 514.2 197.3C557 194 600 190 642.8 186.7C685.7 183.3 728.3 180.7 771.2 181.3C814 182 857 186 878.5 188L900 190L900 301L878.5 301C857 301 814 301 771.2 301C728.3 301 685.7 301 642.8 301C600 301 557 301 514.2 301C471.3 301 428.7 301 385.8 301C343 301 300 301 257.2 301C214.3 301 171.7 301 128.8 301C86 301 43 301 21.5 301L0 301Z" fill="#697ffa"></path><path d="M0 227L21.5 222.3C43 217.7 86 208.3 128.8 204C171.7 199.7 214.3 200.3 257.2 203.7C300 207 343 213 385.8 217.3C428.7 221.7 471.3 224.3 514.2 221.8C557 219.3 600 211.7 642.8 210.2C685.7 208.7 728.3 213.3 771.2 213.8C814 214.3 857 210.7 878.5 208.8L900 207L900 301L878.5 301C857 301 814 301 771.2 301C728.3 301 685.7 301 642.8 301C600 301 557 301 514.2 301C471.3 301 428.7 301 385.8 301C343 301 300 301 257.2 301C214.3 301 171.7 301 128.8 301C86 301 43 301 21.5 301L0 301Z" fill="#5e6bef"></path><path d="M0 224L21.5 228.3C43 232.7 86 241.3 128.8 245.3C171.7 249.3 214.3 248.7 257.2 245.8C300 243 343 238 385.8 236.8C428.7 235.7 471.3 238.3 514.2 237.2C557 236 600 231 642.8 228.2C685.7 225.3 728.3 224.7 771.2 225.3C814 226 857 228 878.5 229L900 230L900 301L878.5 301C857 301 814 301 771.2 301C728.3 301 685.7 301 642.8 301C600 301 557 301 514.2 301C471.3 301 428.7 301 385.8 301C343 301 300 301 257.2 301C214.3 301 171.7 301 128.8 301C86 301 43 301 21.5 301L0 301Z" fill="#5656e3"></path><path d="M0 244L21.5 244.7C43 245.3 86 246.7 128.8 249.5C171.7 252.3 214.3 256.7 257.2 256C300 255.3 343 249.7 385.8 250.2C428.7 250.7 471.3 257.3 514.2 259.7C557 262 600 260 642.8 256.5C685.7 253 728.3 248 771.2 246.8C814 245.7 857 248.3 878.5 249.7L900 251L900 301L878.5 301C857 301 814 301 771.2 301C728.3 301 685.7 301 642.8 301C600 301 557 301 514.2 301C471.3 301 428.7 301 385.8 301C343 301 300 301 257.2 301C214.3 301 171.7 301 128.8 301C86 301 43 301 21.5 301L0 301Z" fill="#503fd6"></path><path d="M0 274L21.5 275.8C43 277.7 86 281.3 128.8 280.2C171.7 279 214.3 273 257.2 271.8C300 270.7 343 274.3 385.8 277C428.7 279.7 471.3 281.3 514.2 281.5C557 281.7 600 280.3 642.8 278.2C685.7 276 728.3 273 771.2 270.7C814 268.3 857 266.7 878.5 265.8L900 265L900 301L878.5 301C857 301 814 301 771.2 301C728.3 301 685.7 301 642.8 301C600 301 557 301 514.2 301C471.3 301 428.7 301 385.8 301C343 301 300 301 257.2 301C214.3 301 171.7 301 128.8 301C86 301 43 301 21.5 301L0 301Z" fill="#4b24c7"></path></svg>